<svg width="20" height="20" viewBox="0 0 20 20" fill="none" xmlns="http://www.w3.org/2000/svg">
<path fill-rule="evenodd" clip-rule="evenodd" d="M10 15C12.7614 15 15 12.7614 15 10C15 7.23857 12.7614 5 10 5C7.23857 5 5 7.23857 5 10C5 12.7614 7.23857 15 10 15ZM10 13.3333C11.8409 13.3333 13.3333 11.8409 13.3333 10C13.3333 8.15905 11.8409 6.66667 10 6.66667C8.15905 6.66667 6.66667 8.15905 6.66667 10C6.66667 11.8409 8.15905 13.3333 10 13.3333Z" fill="currentColor"/>
<path d="M15.0001 4.1665C14.5398 4.1665 14.1667 4.5396 14.1667 4.99984C14.1667 5.46007 14.5398 5.83317 15.0001 5.83317C15.4603 5.83317 15.8334 5.46007 15.8334 4.99984C15.8334 4.5396 15.4603 4.1665 15.0001 4.1665Z" fill="currentColor"/>
<path fill-rule="evenodd" clip-rule="evenodd" d="M1.37822 3.56355C0.833252 4.6331 0.833252 6.03324 0.833252 8.8335V11.1668C0.833252 13.9671 0.833252 15.3672 1.37822 16.4367C1.85759 17.3776 2.62249 18.1425 3.5633 18.6218C4.63286 19.1668 6.03299 19.1668 8.83325 19.1668H11.1666C13.9668 19.1668 15.367 19.1668 16.4365 18.6218C17.3773 18.1425 18.1423 17.3776 18.6216 16.4367C19.1666 15.3672 19.1666 13.9671 19.1666 11.1668V8.8335C19.1666 6.03324 19.1666 4.6331 18.6216 3.56355C18.1423 2.62273 17.3773 1.85783 16.4365 1.37846C15.367 0.833496 13.9668 0.833496 11.1666 0.833496H8.83325C6.03299 0.833496 4.63286 0.833496 3.5633 1.37846C2.62249 1.85783 1.85759 2.62273 1.37822 3.56355ZM11.1666 2.50016H8.83325C7.40562 2.50016 6.43513 2.50146 5.68499 2.56275C4.95429 2.62245 4.58062 2.73065 4.31995 2.86347C3.69274 3.18305 3.18281 3.69299 2.86323 4.3202C2.73041 4.58086 2.6222 4.95453 2.5625 5.68523C2.50122 6.43537 2.49992 7.40586 2.49992 8.8335V11.1668C2.49992 12.5945 2.50122 13.5649 2.5625 14.3151C2.6222 15.0458 2.73041 15.4195 2.86323 15.6802C3.18281 16.3073 3.69274 16.8172 4.31995 17.1368C4.58062 17.2697 4.95429 17.3779 5.68499 17.4376C6.43513 17.4988 7.40562 17.5002 8.83325 17.5002H11.1666C12.5943 17.5002 13.5647 17.4988 14.3148 17.4376C15.0456 17.3779 15.4193 17.2697 15.6799 17.1368C16.3071 16.8172 16.817 16.3073 17.1366 15.6802C17.2694 15.4195 17.3777 15.0458 17.4373 14.3151C17.4986 13.5649 17.4999 12.5945 17.4999 11.1668V8.8335C17.4999 7.40586 17.4986 6.43537 17.4373 5.68523C17.3777 4.95453 17.2694 4.58086 17.1366 4.3202C16.817 3.69299 16.3071 3.18305 15.6799 2.86347C15.4193 2.73065 15.0456 2.62245 14.3148 2.56275C13.5647 2.50146 12.5943 2.50016 11.1666 2.50016Z" fill="currentColor"/>
</svg>
