<svg width="20" height="20" viewBox="0 0 20 20" fill="none" xmlns="http://www.w3.org/2000/svg">
<path d="M9.98841 10.284C7.63425 10.284 5.67758 8.329 5.67758 6.01567C5.67758 3.62234 7.63425 1.6665 9.98925 1.6665C12.4242 1.6665 14.3001 3.6215 14.3001 6.01567C14.2959 7.15155 13.8409 8.23928 13.035 9.03981C12.2292 9.84034 11.1385 10.2882 10.0026 10.2848L9.98841 10.284ZM9.98841 4.18067C8.99175 4.18067 8.23341 5.01817 8.23341 6.0165C8.23341 7.01317 8.99175 7.7715 9.98925 7.7715C11.0267 7.7715 11.7451 7.01317 11.7451 6.0165C11.7459 5.01734 11.0267 4.18067 9.98841 4.18067ZM11.7051 13.8357L14.1409 16.1898C14.6201 16.7073 14.6201 17.4657 14.1409 17.9448C13.6226 18.4623 12.8234 18.4623 12.4242 17.9448L9.98925 15.5507L7.63425 17.9448C7.39508 18.184 7.07508 18.3032 6.71508 18.3032C6.43591 18.3032 6.11675 18.1832 5.83675 17.9448C5.35758 17.4657 5.35758 16.7073 5.83675 16.189L8.31175 13.8348C7.41794 13.5702 6.56053 13.1953 5.75925 12.719C5.16008 12.3998 5.04092 11.6023 5.36008 11.0032C5.75925 10.4048 6.47758 10.2457 7.11675 10.6448C7.98225 11.173 8.97657 11.4525 9.9905 11.4525C11.0044 11.4525 11.9988 11.173 12.8642 10.6448C13.5034 10.2457 14.2609 10.4048 14.6201 11.0032C14.9801 11.6023 14.8192 12.399 14.2601 12.719C13.5026 13.1982 12.6242 13.5573 11.7059 13.8365L11.7051 13.8357Z" fill="currentColor"/>
</svg>
