<svg width="20" height="20" viewBox="0 0 20 20" fill="none" xmlns="http://www.w3.org/2000/svg">
<path d="M17.5 5.83326V7.49993C17.5 7.72094 17.4122 7.9329 17.2559 8.08918C17.0996 8.24546 16.8877 8.33326 16.6667 8.33326C15.4958 8.33118 14.3461 8.02077 13.3333 7.43326V12.9166C13.3336 13.8787 13.0776 14.8236 12.5916 15.654C12.1056 16.4844 11.4072 17.1704 10.5682 17.6414C9.72924 18.1124 8.77994 18.3514 7.81794 18.3339C6.85595 18.3163 5.91598 18.0429 5.09471 17.5416C4.27345 17.0403 3.60052 16.3294 3.14513 15.4818C2.68974 14.6342 2.46832 13.6807 2.50365 12.7192C2.53899 11.7577 2.82979 10.8229 3.34616 10.0111C3.86253 9.19922 4.58582 8.53956 5.44167 8.09993C5.56973 8.03171 5.71339 7.99811 5.85842 8.00245C6.00345 8.0068 6.14484 8.04894 6.26859 8.1247C6.39234 8.20047 6.49416 8.30723 6.56398 8.43443C6.6338 8.56162 6.66919 8.70485 6.66667 8.84993V10.9499C6.65776 11.1456 6.57427 11.3305 6.43333 11.4666C6.13406 11.7693 5.93513 12.1568 5.86353 12.5764C5.79193 12.996 5.85112 13.4275 6.03308 13.8123C6.21504 14.1972 6.51095 14.5168 6.8807 14.7277C7.25044 14.9387 7.67612 15.0308 8.1 14.9916C8.6323 14.9238 9.12077 14.6617 9.4715 14.2556C9.82223 13.8495 10.0105 13.3281 10 12.7916V2.49993C10 2.27891 10.0878 2.06695 10.2441 1.91067C10.4004 1.75439 10.6123 1.66659 10.8333 1.66659H12.5917C12.7902 1.66371 12.9832 1.7318 13.136 1.8586C13.2888 1.98541 13.3913 2.1626 13.425 2.35826C13.5828 3.10237 13.9904 3.77012 14.5801 4.25064C15.1697 4.73117 15.906 4.99556 16.6667 4.99993C16.8877 4.99993 17.0996 5.08772 17.2559 5.244C17.4122 5.40028 17.5 5.61224 17.5 5.83326Z" fill="currentColor"/>
</svg>
