<svg width="20" height="20" viewBox="0 0 20 20" fill="none" xmlns="http://www.w3.org/2000/svg">
<path d="M11.9145 9.84383C11.602 9.72633 11.602 9.27758 11.5826 8.96508C11.5045 7.85195 11.8951 6.15258 11.4263 5.43008C11.0945 5.00008 9.49259 5.03945 8.51634 5.0982C8.24259 5.13758 7.91072 5.1957 7.67634 5.3132C7.44197 5.4307 7.20759 5.6257 7.20759 5.80133C7.20759 6.05508 7.79384 6.01633 8.00822 6.3482C8.24259 6.70008 8.24259 7.46133 8.24259 8.08633C8.24259 8.80883 8.12509 9.76633 7.83259 9.80508C7.38322 9.82445 7.12947 9.37508 6.89509 9.0432C6.42634 8.39883 5.95759 7.59758 5.60572 6.81633C5.43009 6.40633 5.33197 5.95695 5.07822 5.78133C4.68759 5.50758 3.98447 5.4882 3.30072 5.50758C2.67572 5.52695 1.77697 5.44883 1.60134 5.82008C1.46447 6.23008 1.75759 6.6207 1.91384 6.9532C2.71447 8.69133 3.57384 10.2151 4.62884 11.6601C5.60572 13.0076 6.52322 14.082 8.32009 14.6482C8.82822 14.8045 11.0545 15.2538 11.5038 14.6482C11.6601 14.4138 11.6213 13.8863 11.6995 13.4957C11.7776 13.1051 11.8751 12.7145 12.2463 12.6951C12.5588 12.6757 12.7345 12.9488 12.9301 13.1445C13.1451 13.3595 13.3207 13.5351 13.477 13.7307C13.8482 14.102 14.2388 14.6095 14.7076 14.8051C15.352 15.0788 16.3482 15.0007 17.2857 14.9613C18.0476 14.942 18.5945 14.7857 18.6532 14.3363C18.6926 13.9845 18.3013 13.477 18.067 13.1838C17.4807 12.4613 17.2076 12.2463 16.5432 11.582C16.2501 11.2888 15.8788 10.9763 15.8788 10.6251C15.8595 10.4101 16.0351 10.2151 16.1913 10.0001C16.8751 8.98445 17.5588 8.26195 18.1838 7.20695C18.3595 6.89445 18.7701 6.17195 18.6138 5.82008C18.4382 5.42945 17.4613 5.54633 16.8557 5.54633C16.0745 5.54633 15.0588 5.48758 14.8632 5.64383C14.492 5.89758 14.3357 6.3082 14.1601 6.69883C13.7695 7.59758 13.242 8.51508 12.6951 9.19883C12.4995 9.4332 12.1288 9.92133 11.9138 9.8432L11.9145 9.84383Z" fill="currentColor"/>
</svg>
