<svg width="20" height="20" viewBox="0 0 20 20" fill="none" xmlns="http://www.w3.org/2000/svg">
<g clip-path="url(#clip0_165_20)">
<path fill-rule="evenodd" clip-rule="evenodd" d="M7.98844 12.5861V6.9743C9.98064 7.91173 11.5236 8.81731 13.3485 9.79363C11.8433 10.6283 9.98064 11.5649 7.98844 12.5861ZM19.091 4.18328C18.7474 3.73052 18.1617 3.37809 17.5381 3.26141C15.7053 2.91336 4.27099 2.91237 2.43915 3.26141C1.93911 3.35515 1.49384 3.58173 1.11133 3.93377C-0.500363 5.42967 0.00466618 13.4517 0.393147 14.7512C0.556507 15.3136 0.76769 15.7193 1.03365 15.9855C1.37631 16.3376 1.84547 16.58 2.38436 16.6887C3.89345 17.0008 11.668 17.1753 17.5062 16.7355C18.0441 16.6418 18.5202 16.3916 18.8958 16.0246C20.3859 14.5347 20.2843 6.06213 19.091 4.18328Z" fill="currentColor"/>
</g>
<defs>
<clipPath id="clip0_165_20">
<rect width="20" height="20" fill="white"/>
</clipPath>
</defs>
</svg>
